<svg width="15" height="17" viewBox="0 0 15 17" fill="none" xmlns="http://www.w3.org/2000/svg">
<path d="M7.0295 16.2448C8.30254 16.2448 9.36746 15.3231 9.612 14.1031H4.44699C4.69166 15.3231 5.75658 16.2448 7.0295 16.2448Z" fill="white"/>
<path d="M11.9583 7.67743C11.9555 7.67743 11.9527 7.67808 11.9498 7.67808C9.23735 7.67808 7.02951 5.4364 7.02951 2.68087C7.02951 1.92336 7.20108 1.20728 7.4998 0.563367C7.3451 0.548466 7.18833 0.539185 7.02951 0.539185C4.31212 0.539185 2.10917 2.77642 2.10917 5.5364V7.52671C2.10917 8.93951 1.49974 10.2731 0.430576 11.1911C0.0741867 11.5003 -0.083994 11.9928 0.0439406 12.4733C0.192983 13.0323 0.737027 13.3893 1.30784 13.3893H12.7477C13.3466 13.3893 13.9111 12.9952 14.0326 12.3991C14.1268 11.9379 13.9651 11.4774 13.613 11.1769C12.5909 10.3067 11.9998 9.02801 11.9583 7.67743Z" fill="white"/>
<path d="M15 3.11041C15 4.82821 13.4331 6.2207 11.4999 6.2207C9.56693 6.2207 8 4.82821 8 3.11041C8 1.3926 9.56693 0 11.4999 0C13.4331 0 15 1.3926 15 3.11041Z" fill="white"/>
</svg>
